# xmcd
#
# Track frame offsets:
#	150
#	40153
#	70009
#	90489
#	105979
#	148585
#	179629
#	194646
#	205015
#	227437
#	263626
#
# Disc length: 3916 seconds
#
# Revision: 6
# Processed by: cddbd v1.5.2PL0 Copyright (c) Steve Scherf et al.
# Submitted via: audiograbber 1.83.01
#
DISCID=900f4a0b
DTITLE=Kraftwerk - Der Katalog [CD 7) - The Mix [remastered 2009]
DYEAR=1991
DGENRE=Electronic
TTITLE0=Die Roboter
TTITLE1=Computer Liebe
TTITLE2=Taschenrechner
TTITLE3=Dentaku
TTITLE4=Autobahn
TTITLE5=Radioaktivität
TTITLE6=Trans Europa Express
TTITLE7=Abzug
TTITLE8=Metall auf Metall
TTITLE9=Heimcomputer
TTITLE10=Music Non Stop
EXTD=
EXTT0=
EXTT1=
EXTT2=
EXTT3=
EXTT4=
EXTT5=
EXTT6=
EXTT7=
EXTT8=
EXTT9=
EXTT10=
PLAYORDER=
